<svg xmlns="http://www.w3.org/2000/svg" width="1180" height="640" viewBox="0 0 1180 640" role="img" aria-label="Pulsar vs Alfheim vs vanilla lighting benchmark: Pulsar generates 8 percent faster than Alfheim and converges single block edits 58 times faster">
  <style>
    :root { color-scheme: light dark; }
    .surface { fill: #fcfcfb; }
    .ink-1 { fill: #0b0b0b; }
    .ink-2 { fill: #52514e; }
    .muted { fill: #898781; }
    .grid { stroke: #e1e0d9; }
    .axis { stroke: #c3c2b7; }
    .s-pulsar { fill: #2a78d6; }
    .s-alfheim { fill: #eb6834; }
    .s-vanilla { fill: #1baf7a; }
    text { font-family: system-ui, -apple-system, "Segoe UI", sans-serif; }
    .tnum { font-variant-numeric: tabular-nums; }
    @media (prefers-color-scheme: dark) {
      .surface { fill: #1a1a19; }
      .ink-1 { fill: #ffffff; }
      .ink-2 { fill: #c3c2b7; }
      .grid { stroke: #2c2c2a; }
      .axis { stroke: #383835; }
      .s-pulsar { fill: #3987e5; }
      .s-alfheim { fill: #d95926; }
      .s-vanilla { fill: #199e70; }
    }
  </style>

  <rect class="surface" x="0" y="0" width="1180" height="640"/>

  <!-- Header -->
  <text class="ink-1" x="60" y="40" font-size="22" font-weight="700">Lighting Engine Benchmark - Pulsar, Alfheim, Vanilla</text>
  <text class="ink-2" x="60" y="64" font-size="13">Lightbench-1.12.2, fixed seed (lightbench112), Cleanroom Loader 0.5.15-alpha, 2026-07-27, mean of 2 runs</text>

  <!-- Legend -->
  <g font-size="13">
    <rect class="s-vanilla" x="60" y="84" width="14" height="14" rx="3"/>
    <text class="ink-2" x="80" y="96">vanilla 1.12.2</text>
    <rect class="s-alfheim" x="190" y="84" width="14" height="14" rx="3"/>
    <text class="ink-2" x="210" y="96">Alfheim 1.6</text>
    <rect class="s-pulsar" x="310" y="84" width="14" height="14" rx="3"/>
    <text class="ink-2" x="330" y="96">Pulsar 0.1.0-dev.14</text>
  </g>

  <!-- Test system card -->
  <g>
    <rect class="axis" x="858" y="16" width="262" height="118" rx="8" fill="none" stroke-width="1"/>
    <text class="muted" x="874" y="36" font-size="10" font-weight="700" letter-spacing="0.08em">TEST SYSTEM</text>
    <text class="ink-2" x="874" y="55" font-size="11.5">Ryzen AI MAX+ 395</text>
    <text class="ink-2" x="874" y="71" font-size="11.5">Radeon 8060S</text>
    <text class="ink-2" x="874" y="87" font-size="11.5">96 GB DDR5-8000</text>
    <line class="grid" x1="874" y1="96" x2="1104" y2="96" stroke-width="1"/>
    <text class="muted" x="874" y="112" font-size="10.5">Base: BareBones Template (Cleanroom)</text>
    <text class="muted" x="874" y="126" font-size="10.5">only the lighting engine swapped per run</text>
  </g>

  <!-- ===== Panel A: worldgen ===== -->
  <text class="ink-1" x="60" y="142" font-size="14" font-weight="600">World generation</text>
  <text class="muted" x="60" y="160" font-size="12">10,201 chunks — wall time until fully lit</text>

  <g class="grid" stroke-width="1">
    <line x1="60" y1="411.4" x2="420" y2="411.4"/>
    <line x1="60" y1="322.9" x2="420" y2="322.9"/>
    <line x1="60" y1="234.3" x2="420" y2="234.3"/>
  </g>
  <g class="muted" font-size="11" text-anchor="end">
    <text class="tnum" x="52" y="503">0</text>
    <text class="tnum" x="52" y="415">20s</text>
    <text class="tnum" x="52" y="327">40s</text>
    <text class="tnum" x="52" y="238">60s</text>
  </g>

  <path class="s-vanilla" d="M108 500 L108 232.5 Q108 228.5 112 228.5 L168 228.5 Q172 228.5 172 232.5 L172 500 Z"/>
  <text class="ink-2 tnum" x="140" y="216" font-size="13" font-weight="600" text-anchor="middle">61.3s</text>

  <path class="s-alfheim" d="M208 500 L208 264.9 Q208 260.9 212 260.9 L268 260.9 Q272 260.9 272 264.9 L272 500 Z"/>
  <text class="ink-2 tnum" x="240" y="249" font-size="13" font-weight="600" text-anchor="middle">54.0s</text>

  <path class="s-pulsar" d="M308 500 L308 283.5 Q308 279.5 312 279.5 L368 279.5 Q372 279.5 372 283.5 L372 500 Z"/>
  <text class="ink-2 tnum" x="340" y="267.5" font-size="13" font-weight="600" text-anchor="middle">49.8s</text>
  <text class="ink-1" x="340" y="247.5" font-size="12" font-weight="700" text-anchor="middle">−8% vs Alfheim</text>

  <line class="axis" x1="60" y1="500" x2="420" y2="500" stroke-width="1"/>
  <g class="ink-2" font-size="12" text-anchor="middle">
    <text x="140" y="520">vanilla</text>
    <text x="240" y="520">Alfheim</text>
    <text x="340" y="520">Pulsar</text>
  </g>
  <text class="muted" x="240" y="560" font-size="11" text-anchor="middle">Pulsar also offloads ~9s of light CPU to worker threads</text>

  <!-- ===== Panel B: edits, grouped linear bars ===== -->
  <text class="ink-1" x="520" y="142" font-size="14" font-weight="600">Single block edit until light converged (p50)</text>
  <text class="muted" x="520" y="160" font-size="12">64×64 stone platform at y=254 · 50 edits each · lower is better</text>

  <!-- y = 0..400ms over 500..190 -->
  <g class="grid" stroke-width="1">
    <line x1="520" y1="422.5" x2="1120" y2="422.5"/>
    <line x1="520" y1="345"   x2="1120" y2="345"/>
    <line x1="520" y1="267.5" x2="1120" y2="267.5"/>
    <line x1="520" y1="190"   x2="1120" y2="190"/>
  </g>
  <g class="muted" font-size="11" text-anchor="end">
    <text class="tnum" x="512" y="503">0</text>
    <text class="tnum" x="512" y="426">100ms</text>
    <text class="tnum" x="512" y="348">200ms</text>
    <text class="tnum" x="512" y="271">300ms</text>
    <text class="tnum" x="512" y="193">400ms</text>
  </g>

  <!-- remove group: bar centers 648 / 700 / 752, width 44 -->
  <!-- vanilla 23.5ms -> h 18.2 -> y 481.8 -->
  <path class="s-vanilla" d="M626 500 L626 485.8 Q626 481.8 630 481.8 L666 481.8 Q670 481.8 670 485.8 L670 500 Z"/>
  <text class="ink-2 tnum" x="648" y="469.8" font-size="11" font-weight="600" text-anchor="middle">23.5ms</text>
  <!-- alfheim 4.28ms -> h 3.3 -->
  <rect class="s-alfheim" x="678" y="496.68" width="44" height="3.32"/>
  <text class="ink-2 tnum" x="700" y="484" font-size="11" font-weight="600" text-anchor="middle">4.28ms</text>
  <!-- pulsar 0.18ms -> h 0.14 -->
  <rect class="s-pulsar" x="730" y="499.86" width="44" height="0.14"/>
  <text class="ink-2 tnum" x="752" y="472" font-size="11" font-weight="600" text-anchor="middle">0.18ms</text>

  <!-- place group: bar centers 886 / 938 / 990 -->
  <!-- vanilla 308ms -> y 261.0 -->
  <path class="s-vanilla" d="M864 500 L864 265 Q864 261 868 261 L904 261 Q908 261 908 265 L908 500 Z"/>
  <text class="ink-2 tnum" x="886" y="249" font-size="11" font-weight="600" text-anchor="middle">308ms</text>
  <!-- alfheim 10.3ms -> h 8.0 -> y 492.03 -->
  <path class="s-alfheim" d="M916 500 L916 496.03 Q916 492.03 920 492.03 L956 492.03 Q960 492.03 960 496.03 L960 500 Z"/>
  <text class="ink-2 tnum" x="938" y="484" font-size="11" font-weight="600" text-anchor="middle">10.3ms</text>
  <!-- pulsar 0.18ms -> h 0.14 -->
  <rect class="s-pulsar" x="968" y="499.86" width="44" height="0.14"/>
  <text class="ink-2 tnum" x="990" y="472" font-size="11" font-weight="600" text-anchor="middle">0.18ms</text>
  <text class="ink-1" x="990" y="452" font-size="12" font-weight="700" text-anchor="middle">58× vs Alfheim</text>

  <line class="axis" x1="520" y1="500" x2="1120" y2="500" stroke-width="1"/>
  <g class="ink-2" font-size="12" text-anchor="middle">
    <text x="700" y="520">remove block</text>
    <text x="700" y="536" font-size="11" class="muted">sky light floods the column below</text>
    <text x="938" y="520">place block</text>
    <text x="938" y="536" font-size="11" class="muted">column re-shadowed</text>
  </g>
  <text class="muted" x="820" y="560" font-size="11" text-anchor="middle">Bulk: 4,096-block platform fully lit — Pulsar 0.2s · Alfheim 0.6s · vanilla 26.0s</text>

  <!-- Footnote -->
  <text class="muted" x="60" y="600" font-size="11">fresh world per run · edit time includes async convergence wait</text>
  <text class="muted" x="60" y="618" font-size="11">Method: port of ca.spottedleaf/lightbench methodology</text>
</svg>
